name Walk10.mot
datacolumns 19
datarows 27
range 1.36000000 1.38600000
endheader

                time	   L_ground_force_vx	   L_ground_force_vy	   L_ground_force_vz	   L_ground_force_px	   L_ground_force_py	   L_ground_force_pz	   R_ground_force_vx	   R_ground_force_vy	   R_ground_force_vz	   R_ground_force_px	   R_ground_force_py	   R_ground_force_pz	   L_ground_torque_x	   L_ground_torque_y	   L_ground_torque_z	   R_ground_torque_x	   R_ground_torque_y	   R_ground_torque_z	
          1.36000000	          0.00000000	          0.00000000	          0.00000000	          0.00000000	          0.00000000	          0.00000000	          0.00000000	          0.00000000	          0.00000000	          0.00000000	          0.00000000	          0.00000000	          0.00000000	          0.00000000	          0.00000000	          0.00000000	          0.00000000	          0.00000000	
          1.36100000	          0.00000000	          0.00000000	          0.00000000	          0.00000000	          0.00000000	          0.00000000	          0.00000000	          0.00000000	          0.00000000	          0.00000000	          0.00000000	          0.00000000	          0.00000000	          0.00000000	          0.00000000	          0.00000000	          0.00000000	          0.00000000	
          1.36200000	          0.00000000	          0.00000000	          0.00000000	          0.00000000	          0.00000000	          0.00000000	          0.00000000	          0.00000000	          0.00000000	          0.00000000	          0.00000000	          0.00000000	          0.00000000	          0.00000000	          0.00000000	          0.00000000	          0.00000000	          0.00000000	
          1.36300000	          0.00000000	          0.00000000	          0.00000000	          0.00000000	          0.00000000	          0.00000000	          0.00000000	          0.00000000	          0.00000000	          0.00000000	          0.00000000	          0.00000000	          0.00000000	          0.00000000	          0.00000000	          0.00000000	          0.00000000	          0.00000000	
          1.36400000	          0.00000000	          0.00000000	          0.00000000	          0.00000000	          0.00000000	          0.00000000	          0.00000000	          0.00000000	          0.00000000	          0.00000000	          0.00000000	          0.00000000	          0.00000000	          0.00000000	          0.00000000	          0.00000000	          0.00000000	          0.00000000	
          1.36500000	          0.00000000	          0.00000000	          0.00000000	          0.00000000	          0.00000000	          0.00000000	          0.00000000	          0.00000000	          0.00000000	          0.00000000	          0.00000000	          0.00000000	          0.00000000	          0.00000000	          0.00000000	          0.00000000	          0.00000000	          0.00000000	
          1.36600000	          0.00000000	          0.00000000	          0.00000000	          0.00000000	          0.00000000	          0.00000000	         -2.07810937	          7.46678490	         -0.51175238	         -0.46382730	          0.00000000	         -0.06461539	          0.00000000	          0.00000000	          0.00000000	          0.00000000	         -0.00965178	          0.00000000	
          1.36700000	          0.00000000	          0.00000000	          0.00000000	          0.00000000	          0.00000000	          0.00000000	         -3.82224827	         17.07748321	         -1.01609694	         -0.46019774	          0.00000000	         -0.06799079	          0.00000000	          0.00000000	          0.00000000	          0.00000000	         -0.00328825	          0.00000000	
          1.36800000	          0.00000000	          0.00000000	          0.00000000	          0.00000000	          0.00000000	          0.00000000	         -5.91241785	         30.88584303	         -1.66260371	         -0.45821415	          0.00000000	         -0.06953152	          0.00000000	          0.00000000	          0.00000000	          0.00000000	          0.01921831	          0.00000000	
          1.36900000	          0.00000000	          0.00000000	          0.00000000	          0.00000000	          0.00000000	          0.00000000	         -8.19292508	         49.47174191	         -2.42932978	         -0.45685245	          0.00000000	         -0.07014574	          0.00000000	          0.00000000	          0.00000000	          0.00000000	          0.05836042	          0.00000000	
          1.37000000	          0.00000000	          0.00000000	          0.00000000	          0.00000000	          0.00000000	          0.00000000	        -10.51528459	         73.51362745	         -3.32058451	         -0.45583298	          0.00000000	         -0.07029762	          0.00000000	          0.00000000	          0.00000000	          0.00000000	          0.10239358	          0.00000000	
          1.37100000	          0.00000000	          0.00000000	          0.00000000	          0.00000000	          0.00000000	          0.00000000	        -12.68075492	        103.19315357	         -4.36662713	         -0.45504107	          0.00000000	         -0.07037851	          0.00000000	          0.00000000	          0.00000000	          0.00000000	          0.13461749	          0.00000000	
          1.37200000	          0.00000000	          0.00000000	          0.00000000	          0.00000000	          0.00000000	          0.00000000	        -14.43000634	        137.53385428	         -5.60733859	         -0.45441928	          0.00000000	         -0.07052973	          0.00000000	          0.00000000	          0.00000000	          0.00000000	          0.14927821	          0.00000000	
          1.37300000	          0.00000000	          0.00000000	          0.00000000	          0.00000000	          0.00000000	          0.00000000	        -15.52111001	        174.15051504	         -7.07241424	         -0.45390239	          0.00000000	         -0.07068302	          0.00000000	          0.00000000	          0.00000000	          0.00000000	          0.15320013	          0.00000000	
          1.37400000	          0.00000000	          0.00000000	          0.00000000	          0.00000000	          0.00000000	          0.00000000	        -15.83542367	        209.63580050	         -8.76355501	         -0.45343209	          0.00000000	         -0.07073396	          0.00000000	          0.00000000	          0.00000000	          0.00000000	          0.15355993	          0.00000000	
          1.37500000	          0.00000000	          0.00000000	          0.00000000	          0.00000000	          0.00000000	          0.00000000	        -15.43408582	        240.42255573	        -10.64440913	         -0.45299227	          0.00000000	         -0.07065369	          0.00000000	          0.00000000	          0.00000000	          0.00000000	          0.15087858	          0.00000000	
          1.37600000	          0.00000000	          0.00000000	          0.00000000	          0.00000000	          0.00000000	          0.00000000	        -14.53935257	        263.69851281	        -12.63974851	         -0.45258494	          0.00000000	         -0.07047719	          0.00000000	          0.00000000	          0.00000000	          0.00000000	          0.14450290	          0.00000000	
          1.37700000	          0.00000000	          0.00000000	          0.00000000	          0.00000000	          0.00000000	          0.00000000	        -13.45929470	        278.02163020	        -14.64408412	         -0.45218657	          0.00000000	         -0.07024942	          0.00000000	          0.00000000	          0.00000000	          0.00000000	          0.13976718	          0.00000000	
          1.37800000	          0.00000000	          0.00000000	          0.00000000	          0.00000000	          0.00000000	          0.00000000	        -12.48722022	        283.44771280	        -16.53966978	         -0.45175580	          0.00000000	         -0.07002273	          0.00000000	          0.00000000	          0.00000000	          0.00000000	          0.14526915	          0.00000000	
          1.37900000	          0.00000000	          0.00000000	          0.00000000	          0.00000000	          0.00000000	          0.00000000	        -11.82057601	        281.24257437	        -18.21803666	         -0.45128355	          0.00000000	         -0.06986618	          0.00000000	          0.00000000	          0.00000000	          0.00000000	          0.16346168	          0.00000000	
          1.38000000	          0.00000000	          0.00000000	          0.00000000	          0.00000000	          0.00000000	          0.00000000	        -11.53363433	        273.43219303	        -19.59970615	         -0.45080429	          0.00000000	         -0.06984116	          0.00000000	          0.00000000	          0.00000000	          0.00000000	          0.18554068	          0.00000000	
          1.38100000	          0.00000000	          0.00000000	          0.00000000	          0.00000000	          0.00000000	          0.00000000	        -11.59512482	        262.33060065	        -20.65153198	         -0.45034427	          0.00000000	         -0.06997506	          0.00000000	          0.00000000	          0.00000000	          0.00000000	          0.19707642	          0.00000000	
          1.38200000	          0.00000000	          0.00000000	          0.00000000	          0.00000000	          0.00000000	          0.00000000	        -11.90663760	        250.09584686	        -21.39442472	         -0.44990553	          0.00000000	         -0.07023864	          0.00000000	          0.00000000	          0.00000000	          0.00000000	          0.19155229	          0.00000000	
          1.38300000	          0.00000000	          0.00000000	          0.00000000	          0.00000000	          0.00000000	          0.00000000	        -12.35077875	        238.43310548	        -21.88913121	         -0.44951155	          0.00000000	         -0.07051549	          0.00000000	          0.00000000	          0.00000000	          0.00000000	          0.17731965	          0.00000000	
          1.38400000	          0.00000000	          0.00000000	          0.00000000	          0.00000000	          0.00000000	          0.00000000	        -12.83589320	        228.51229290	        -22.20884773	         -0.44919122	          0.00000000	         -0.07064376	          0.00000000	          0.00000000	          0.00000000	          0.00000000	          0.16812499	          0.00000000	
          1.38500000	          0.00000000	          0.00000000	          0.00000000	          0.00000000	          0.00000000	          0.00000000	        -13.32328737	        221.01239795	        -22.42311036	         -0.44890817	          0.00000000	         -0.07056166	          0.00000000	          0.00000000	          0.00000000	          0.00000000	          0.17129297	          0.00000000	
          1.38600000	          0.00000000	          0.00000000	          0.00000000	          0.00000000	          0.00000000	          0.00000000	        -13.82850139	        216.20951782	        -22.59986318	         -0.44857330	          0.00000000	         -0.07037841	          0.00000000	          0.00000000	          0.00000000	          0.00000000	          0.18902850	          0.00000000	
